<svg width="26" height="25" viewBox="0 0 26 25" fill="none" xmlns="http://www.w3.org/2000/svg">
<path d="M4.54545 11.9459L4.54545 11.4545C4.54545 6.78522 8.33068 3 13 3C17.6693 3 21.4545 6.78523 21.4545 11.4545L21.4545 11.9459L21.4545 17.665C21.4545 17.6819 21.4545 17.6987 21.4545 17.7153C21.4544 17.964 21.4543 18.1835 21.4868 18.4036C21.5167 18.6056 21.5671 18.8041 21.6373 18.9958C21.7137 19.2048 21.8186 19.3976 21.9375 19.6161C21.9454 19.6307 21.9534 19.6454 21.9615 19.6602L22.5694 20.7794C22.9945 21.562 23.2799 22.0895 23.4569 22.4993C23.6353 22.9124 23.6368 23.0633 23.6313 23.1123C23.599 23.3975 23.4458 23.6551 23.2106 23.8195C23.1701 23.8478 23.0368 23.9185 22.5887 23.9589C22.1441 23.999 21.5443 24 20.6538 24L5.34623 24C4.45571 24 3.85585 23.999 3.4113 23.9589C2.96315 23.9185 2.82986 23.8478 2.78939 23.8195C2.55419 23.6551 2.40098 23.3975 2.36874 23.1123C2.36319 23.0633 2.36472 22.9124 2.5431 22.4993C2.72006 22.0895 3.00554 21.562 3.4306 20.7794L4.03854 19.6602C4.0466 19.6454 4.0546 19.6307 4.06253 19.6161C4.18137 19.3976 4.28625 19.2048 4.36274 18.9958C4.43291 18.8041 4.48332 18.6056 4.51319 18.4036C4.54574 18.1835 4.54562 17.964 4.54547 17.7153C4.54546 17.6987 4.54545 17.6819 4.54545 17.665L4.54545 11.9459Z" stroke="black" stroke-width="2"/>
<path d="M14 1C14 0.447715 13.5523 7.72311e-08 13 0C12.4477 -7.72311e-08 12 0.447715 12 1L14 1ZM14 3L14 1L12 1L12 3L14 3Z" fill="black"/>
</svg>
