<?xml version="1.0" encoding="utf-8"?>
<!-- Generator: Adobe Illustrator 26.1.0, SVG Export Plug-In . SVG Version: 6.00 Build 0)  -->
<svg version="1.1" id="Capa_1" xmlns="http://www.w3.org/2000/svg" xmlns:xlink="http://www.w3.org/1999/xlink" x="0px" y="0px"
	 viewBox="0 0 24 23.2" style="enable-background:new 0 0 24 23.2;" xml:space="preserve">
<style type="text/css">
	.st0{fill-rule:evenodd;clip-rule:evenodd;}
</style>
<path class="st0" d="M2,21.2V12L12,2l10,10v9.2h-9v-6c0-0.6-0.4-1-1-1s-1,0.4-1,1v6H2z M0,12v9.2c0,1.1,0.9,2,2,2h20
	c1.1,0,2-0.9,2-2V12c0-0.5-0.2-1-0.6-1.4l-10-10c-0.8-0.8-2-0.8-2.8,0l-10,10C0.2,11,0,11.5,0,12z"/>
</svg>
