<svg width="12" height="14" viewBox="0 0 12 14" fill="none" xmlns="http://www.w3.org/2000/svg">
<path d="M8 5.55292C8 6.65749 7.10457 7.55292 6 7.55292C4.89543 7.55292 4 6.65749 4 5.55292C4 4.44835 4.89543 3.55292 6 3.55292C7.10457 3.55292 8 4.44835 8 5.55292Z" stroke="black"/>
<path d="M11 5.79325C11 7.24159 10.1511 9.1905 9.02667 10.8115C8.47111 11.6124 7.86803 12.304 7.30604 12.7893C6.71843 13.2967 6.26562 13.5001 6 13.5001C5.73438 13.5001 5.28157 13.2967 4.69396 12.7893C4.13197 12.304 3.52889 11.6124 2.97333 10.8115C1.84886 9.1905 1 7.24159 1 5.79325C1 2.84517 3.26272 0.500142 6 0.500142C8.73728 0.500142 11 2.84517 11 5.79325Z" stroke="black"/>
</svg>
