<svg width="23" height="24" viewBox="0 0 23 24" fill="none" xmlns="http://www.w3.org/2000/svg">
<path fill-rule="evenodd" clip-rule="evenodd" d="M18 10C18 14.4183 14.4183 18 10 18C5.58172 18 2 14.4183 2 10C2 5.58172 5.58172 2 10 2C14.4183 2 18 5.58172 18 10ZM16.0004 18.0004C14.329 19.256 12.2514 20 10 20C4.47715 20 0 15.5228 0 10C0 4.47715 4.47715 0 10 0C15.5228 0 20 4.47715 20 10C20 12.5506 19.0451 14.8782 17.4732 16.6448L22.7071 21.8787C23.0976 22.2692 23.0976 22.9024 22.7071 23.2929C22.3166 23.6834 21.6834 23.6834 21.2929 23.2929L16.0004 18.0004Z" fill="black"/>
</svg>
