<svg width="22" height="20" viewBox="0 0 22 20" fill="none" xmlns="http://www.w3.org/2000/svg">
<path d="M9.99946 2.79734L10.9996 3.69278L12.0001 2.79773C12.9068 1.98661 14.0878 1.5 15.3779 1.5C18.1778 1.5 20.5 3.84157 20.5 6.71462C20.5 9.85414 18.9764 12.8827 15.8393 15.4639L15.8392 15.464C13.5869 17.3175 11.3192 18.2523 11.271 18.272C11.0982 18.3424 10.9047 18.3428 10.732 18.2736L10.1738 19.6659L10.7311 18.2732C10.7312 18.2733 10.7287 18.2723 10.7238 18.2703L10.7027 18.2616C10.6843 18.2539 10.6574 18.2427 10.6227 18.2278C10.5533 18.198 10.4527 18.1537 10.3253 18.0949C10.0704 17.9772 9.70971 17.8019 9.27888 17.5685C8.41385 17.0999 7.28357 16.4066 6.16209 15.4875L6.16199 15.4875C3.02766 12.9192 1.5 9.88126 1.5 6.71462C1.5 3.82072 3.81848 1.5 6.62299 1.5C7.91236 1.5 9.09405 1.98673 9.99946 2.79734Z" stroke="#976D9C" stroke-width="3"/>
</svg>
