<?xml version="1.0" standalone="no"?>
<!DOCTYPE svg PUBLIC "-//W3C//DTD SVG 20010904//EN"
 "http://www.w3.org/TR/2001/REC-SVG-20010904/DTD/svg10.dtd">
<svg version="1.0" xmlns="http://www.w3.org/2000/svg"
 width="358.000000pt" height="358.000000pt" viewBox="0 0 358.000000 358.000000"
 preserveAspectRatio="xMidYMid meet">
<metadata>
Created by potrace 1.14, written by Peter Selinger 2001-2017
</metadata>
<g transform="translate(0.000000,358.000000) scale(0.100000,-0.100000)"
fill="#000000" stroke="none">
<path d="M2035 3553 c-392 -57 -680 -278 -804 -620 -49 -133 -63 -222 -66
-406 -2 -92 -5 -170 -8 -173 -3 -3 -117 -7 -254 -7 l-248 -2 0 -315 0 -315
253 1 c222 0 252 -2 253 -15 0 -9 1 -395 1 -859 l1 -842 371 2 371 3 1 850 c1
468 2 852 3 856 0 3 153 5 338 5 l337 0 1 316 0 317 -315 0 c-173 0 -327 0
-341 0 l-25 1 2 153 c3 162 9 194 48 261 46 78 125 123 236 132 93 9 168 -10
238 -56 l57 -39 223 222 c151 151 222 229 222 243 0 25 -125 129 -211 176 -53
28 -168 77 -198 83 -9 2 -52 11 -96 20 -101 21 -273 24 -390 8z"/>
</g>
</svg>
