<svg width="37" height="48" viewBox="0 0 37 48" fill="none" xmlns="http://www.w3.org/2000/svg">
<path d="M26.409 18.6781C26.409 23.0462 22.868 26.5872 18.4999 26.5872C14.1318 26.5872 10.5908 23.0462 10.5908 18.6781C10.5908 14.31 14.1318 10.769 18.4999 10.769C22.868 10.769 26.409 14.31 26.409 18.6781Z" fill="#976D9C" stroke="#976D9C"/>
<path d="M36.5 19.4864C36.5 24.7159 33.4845 31.5143 29.6517 37.0396C27.7419 39.7925 25.6493 42.2 23.6654 43.913C21.6559 45.6482 19.8489 46.5914 18.5 46.5914C17.151 46.5914 15.3441 45.6482 13.3346 43.913C11.3507 42.2 9.25805 39.7925 7.34833 37.0396C3.51553 31.5143 0.5 24.7159 0.5 19.4864C0.5 8.97597 8.58302 0.500479 18.5 0.500479C28.417 0.500479 36.5 8.97597 36.5 19.4864Z" fill="#976D9C" stroke="#976D9C"/>
</svg>
